<svg id="Capa_1" enable-background="new 0 0 512 512" height="512" viewBox="0 0 512 512" width="512" xmlns="http://www.w3.org/2000/svg"><g><path d="m151 451.607 45 45 45-45v-46.213h271v-390h-512v390h151zm60-12.427-15 15-15-15v-33.787h30zm-88.491-123.787h-10.44l-22.069-21.357v-167.285l22.069-21.358h288.718l21.213 21.214v167.573l-21.213 21.213h-131.296c-6.968-34.192-37.271-60-73.491-60s-66.522 25.809-73.491 60zm28.491 15c0-24.813 20.187-45 45-45s45 20.187 45 45-20.187 45-45 45-45-20.187-45-45zm-121-285h452v330h-226.041c6.565-8.725 11.274-18.922 13.531-30h143.722l38.788-38.786v-192.427l-38.787-38.787h-313.282l-39.931 38.643v192.715l39.931 38.642h22.579c2.258 11.078 6.967 21.275 13.531 30h-106.041z"/><path d="m121 135.393h271v30h-271z"/><path d="m121 195.393h271v30h-271z"/><path d="m301 255.393h91v30h-91z"/></g></svg>