<svg xmlns="http://www.w3.org/2000/svg" width="1024" height="1024" viewBox="0 0 1024 1024">
  <defs>
    <style>
      .cls-1 {
        fill: #66fcf1;
      }

      .cls-1, .cls-2 {
        stroke: #000;
        stroke-width: 1px;
        fill-rule: evenodd;
      }

      .cls-2 {
        fill: #fcfcfc;
      }
    </style>
  </defs>
  <path id="Forme_2" data-name="Forme 2" class="cls-1" d="M303,306h47l71,74h21q-0.5-37-1-74h47l34,35V307h61l61,61,30-61h62l288,289v428H815c-36.8-46.774-87.2-84.775-129-127-86.779-87.653-174.258-178.861-264-268-28.141-27.952-56.2-55.7-84-84l-35-32V306Z"/>
  <path id="HM" class="cls-2" d="M441.29,510.956h43.944V307.216H441.29v73.335H346.839V306.645H303.18V510.956h43.659V424.209H441.29v86.747Zm82.183,0.571H565.99V368.852h0.571l45.085,91.312h34.527l45.371-92.739h0.571v144.1h41.946V307.787H674.994l-46.227,89.885-47.083-89.885H523.473v203.74Z"/>
</svg>
